<svg version="1.1" id="Layer_1" xmlns="http://www.w3.org/2000/svg" xmlns:xlink="http://www.w3.org/1999/xlink" x="0px" y="0px"
	 width="100%" viewBox="0 0 1024 1024" enable-background="new 0 0 1024 1024" xml:space="preserve">
<path fill="#000000" opacity="1.000000" stroke="none" 
	d="
M734.665588,472.860413 
	C735.145020,470.322174 735.402283,468.145508 736.071838,466.104004 
	C738.175476,459.690186 742.428223,455.202911 749.319641,454.912567 
	C762.685120,454.349426 775.977356,455.495178 788.800415,459.593262 
	C798.061157,462.552887 802.952759,469.633484 803.178467,480.172119 
	C803.376343,489.411804 799.918945,496.876831 791.017639,500.720123 
	C779.753540,505.583588 767.567017,506.865479 755.680725,509.286682 
	C754.541931,509.518646 753.391113,509.694519 752.256714,509.945312 
	C748.511414,510.773285 747.471680,512.349060 750.198975,515.725891 
	C755.745850,522.593994 761.050964,529.656982 766.480469,536.620361 
	C777.647095,550.941895 782.931946,567.349121 783.250244,585.335388 
	C783.497925,599.327759 783.204956,613.329529 783.179443,627.327087 
	C783.176514,628.934265 782.775391,630.600342 784.010071,632.939331 
	C782.858032,664.182251 779.935486,677.081604 779.206238,691.164673 
	C778.795044,699.105774 778.707336,707.146851 776.267273,714.888367 
	C772.209961,727.761230 763.912354,736.495056 750.968689,740.324341 
	C743.159973,742.634399 735.145447,744.267212 727.186523,746.039124 
	C724.823425,746.565186 722.785034,747.445435 721.004333,749.049133 
	L304.452271,748.746582 
	C302.767456,747.263428 300.877441,746.493103 298.696442,746.001099 
	C290.741699,744.206726 282.721436,742.591553 274.915955,740.269897 
	C258.642365,735.429199 249.625427,724.156128 247.794327,707.405579 
	C246.492386,695.495605 245.700897,683.525635 244.905441,671.567566 
	C244.698486,668.456543 243.904037,665.745361 242.327011,663.115173 
	C242.679688,617.767212 242.546295,602.641907 242.712418,587.519836 
	C242.935471,567.214783 248.735657,548.844360 262.037231,533.115784 
	C266.660522,527.648865 270.980835,521.923279 275.373413,516.264587 
	C278.522644,512.207642 277.746582,510.142487 272.612366,509.431396 
	C263.530548,508.173492 254.621262,506.108093 245.709534,504.039581 
	C241.812546,503.135010 237.979797,501.989349 234.377335,500.198059 
	C226.085938,496.075226 222.665924,488.935089 222.987137,480.152496 
	C223.326080,470.885559 226.914215,463.075439 236.419937,459.890564 
	C249.511765,455.504181 263.136871,454.356171 276.846863,454.909027 
	C283.429749,455.174500 288.323914,459.926086 290.152832,466.684235 
	C290.846100,469.246124 291.181305,471.903442 291.832672,474.478577 
	C292.479736,477.036835 291.868439,479.878204 293.700409,482.264099 
	C295.623322,481.523254 295.761139,479.466003 296.511536,477.937653 
	C312.293610,445.794525 326.532379,412.883331 344.389832,381.773865 
	C354.075806,364.899933 368.335480,354.785400 387.903778,352.848938 
	C391.226410,352.520142 392.414032,351.198029 392.899963,348.016113 
	C395.712585,329.599091 398.802185,311.224487 401.632843,292.810089 
	C404.018921,277.287811 413.770264,268.754150 429.646454,268.746552 
	C485.140198,268.720032 540.633972,268.722473 596.127686,268.724152 
	C612.637268,268.724640 622.448181,276.874695 625.050842,293.061920 
	C627.928284,310.957916 630.642639,328.881165 633.265869,346.816254 
	C633.828979,350.666138 635.154785,352.389160 639.451721,352.856354 
	C658.373657,354.913666 672.311829,364.970795 681.818176,381.161316 
	C694.993469,403.600739 705.535400,427.382355 716.731445,450.825195 
	C721.882324,461.610382 726.913452,472.452759 732.258179,483.820740 
	C734.102051,480.119965 733.659241,476.530457 734.665588,472.860413 
M660.282471,743.681396 
	C688.576416,740.484497 716.729248,736.438904 744.429199,729.674072 
	C757.168884,726.562744 763.998657,719.260864 765.779541,706.375305 
	C767.603943,693.174988 768.125671,679.852783 769.154541,666.577332 
	C771.227844,639.825562 772.258972,613.037292 771.530579,586.219299 
	C771.272888,576.729248 769.395752,567.382874 765.605164,558.523987 
	C761.680054,549.350464 755.251038,541.893127 749.350220,534.037415 
	C743.258850,525.928101 735.616882,518.883423 731.154358,509.668640 
	C721.862671,490.482056 713.107788,471.036224 703.909912,451.803223 
	C693.352722,429.727844 683.708679,407.163147 670.246887,386.594177 
	C662.447937,374.677856 651.470581,367.269440 637.313660,365.263947 
	C607.590515,361.053375 577.600830,360.170959 547.668640,359.524261 
	C499.201355,358.477051 450.732391,359.219116 402.388062,363.416107 
	C393.796234,364.161957 385.225861,365.015259 377.072693,368.554077 
	C362.924591,374.694916 355.169861,386.608917 348.409454,399.383972 
	C330.796082,432.667816 315.120697,466.899567 299.159515,500.988953 
	C296.268768,507.162933 293.584473,513.385742 289.035950,518.679077 
	C283.068695,525.623596 277.604065,532.997559 271.734955,540.029541 
	C259.921387,554.183777 254.545807,570.528381 254.196213,588.838257 
	C253.686981,615.509583 254.692139,642.130859 256.390625,668.731873 
	C257.175079,681.017456 258.291534,693.283386 259.371094,705.548218 
	C260.433502,717.618042 267.045471,725.601990 278.610260,729.004883 
	C280.684875,729.615234 282.765778,730.226379 284.876099,730.689941 
	C315.305023,737.373901 346.049896,741.934082 377.065582,744.893616 
	C409.410431,747.979980 441.824585,749.863708 474.286896,750.591614 
	C536.108704,751.978027 597.838379,750.235535 660.282471,743.681396 
M513.500000,346.779144 
	C542.805359,346.985992 572.093262,347.726196 601.342834,349.644684 
	C606.822632,350.004120 612.304077,350.336487 617.783447,350.701660 
	C620.424622,350.877655 621.910522,350.182312 621.405823,347.041260 
	C618.476013,328.808136 615.728577,310.545410 612.727478,292.324280 
	C611.705688,286.120575 607.065796,281.951202 600.807922,281.294159 
	C597.176758,280.912872 593.490356,280.982025 589.828674,280.979614 
	C566.009155,280.963837 542.189636,280.981232 518.370117,280.993042 
	C488.553986,281.007843 458.737793,281.002991 428.921753,281.060669 
	C420.137238,281.077667 414.638123,285.595245 413.401550,293.455536 
	C411.127014,307.913757 408.630554,322.340179 406.610046,336.833344 
	C405.987457,341.299164 404.478973,345.823273 405.483490,350.848389 
	C441.322754,348.602478 476.881714,346.828308 513.500000,346.779144 
M281.757812,490.498627 
	C281.037109,484.728058 280.445648,478.937469 279.557800,473.192749 
	C278.738312,467.890198 276.525665,466.053986 270.992706,466.357727 
	C264.527466,466.712677 258.085510,467.487610 251.632156,468.065887 
	C247.810745,468.408356 244.028900,468.953949 240.479706,470.496979 
	C235.451736,472.682953 234.861542,477.003174 235.106750,481.754303 
	C235.333725,486.151947 237.480377,488.880981 241.793106,489.889282 
	C253.289352,492.577148 264.833435,494.958893 276.640289,495.861359 
	C280.020264,496.119720 282.312286,495.456329 281.757812,490.498627 
M788.929321,487.464478 
	C793.921570,479.370819 791.209106,471.592712 782.481812,469.616425 
	C773.205444,467.515930 763.683350,467.223114 754.248047,466.342682 
	C750.679810,466.009674 747.945435,467.555054 747.052124,471.154205 
	C745.053894,479.204559 744.655273,487.471832 743.564209,496.081146 
	C752.090820,496.063141 759.914734,494.659668 767.679749,493.126862 
	C774.646423,491.751648 781.959167,491.621643 788.929321,487.464478 
z"/>
<path fill="#000000" opacity="1.000000" stroke="none" 
	d="
M320.628357,500.057739 
	C318.337280,496.333069 318.365234,492.812256 319.725861,489.176544 
	C331.120300,458.729553 343.755646,428.839447 359.988312,400.601318 
	C365.442993,391.112427 371.910950,382.530182 382.522125,378.038635 
	C389.741791,374.982666 397.422516,374.574738 404.999176,373.827148 
	C452.820099,369.108643 500.799591,369.206360 548.762878,369.867096 
	C576.220764,370.245361 603.652344,371.851257 630.977478,374.870361 
	C645.280090,376.450653 655.800903,383.735779 663.331238,395.740631 
	C673.543152,412.020538 681.453186,429.478790 689.213562,446.983551 
	C694.811035,459.609375 699.926697,472.455566 705.000732,485.304718 
	C709.945923,497.827698 705.210327,505.642975 691.663147,507.211975 
	C683.239136,508.187622 674.751038,508.684814 666.278198,509.151947 
	C609.219910,512.297729 552.109558,513.582947 494.973969,513.100464 
	C461.664703,512.819153 428.352753,512.042664 395.059723,510.949646 
	C375.275543,510.300171 355.522217,508.657043 335.762756,507.344330 
	C329.964203,506.959137 324.626892,505.247375 320.628357,500.057739 
M511.499908,378.878754 
	C475.676880,378.705627 439.943176,380.202393 404.222168,383.145935 
	C388.367004,384.452484 376.823517,390.167480 369.326813,404.657074 
	C357.130157,428.230743 346.344574,452.349243 338.285339,477.644257 
	C335.163025,487.444031 339.274048,493.638885 349.535217,494.638489 
	C375.882751,497.205170 402.304901,498.768433 428.756866,499.597412 
	C443.536987,500.060608 443.675842,499.769287 448.881256,486.013519 
	C451.745056,478.445740 456.664215,473.479401 464.458557,471.109680 
	C471.783508,468.882660 478.982117,466.242096 486.253448,463.835236 
	C488.513824,463.087006 490.475220,462.113678 491.930939,460.052460 
	C495.573273,454.895233 494.273560,446.790222 488.762482,441.349762 
	C484.470184,437.112457 482.347900,428.517151 484.575928,424.393921 
	C487.541870,418.904968 486.983093,414.302429 482.795563,409.729370 
	C477.650635,404.110779 478.563080,398.352844 485.300598,394.532013 
	C492.147858,390.648895 499.517883,388.040802 507.038940,385.803802 
	C510.822418,384.678497 514.540588,384.598785 518.349731,385.684937 
	C525.406128,387.697113 532.383423,389.889832 538.942139,393.256348 
	C548.836609,398.334991 549.683594,402.977020 542.328369,411.379211 
	C539.500549,414.609558 538.411804,419.242004 540.355042,422.367310 
	C544.246521,428.626129 542.632446,434.260864 539.317932,439.145569 
	C536.876282,442.743958 535.221741,446.648254 532.926270,450.220581 
	C530.947144,453.300690 531.532715,455.669495 533.354553,458.432648 
	C535.087219,461.060577 537.157104,462.866364 540.231506,463.796753 
	C546.124512,465.580109 551.830994,468.075226 557.801208,469.487396 
	C569.225098,472.189575 575.987000,479.273346 579.145020,490.278137 
	C579.649292,492.035400 580.526428,493.699585 580.903687,495.476349 
	C581.629089,498.892944 583.612488,499.956207 586.997253,499.808167 
	C598.305176,499.313690 609.638977,499.305176 620.932922,498.618256 
	C639.536438,497.486725 658.138611,496.212189 676.697876,494.521393 
	C687.014771,493.581482 690.870300,486.828949 687.747742,476.869354 
	C684.806702,467.488739 681.438110,458.265106 677.690857,449.182434 
	C670.511230,431.780518 663.197327,414.445129 653.105713,398.445007 
	C648.076843,390.471863 641.023621,385.467773 631.683716,384.507996 
	C615.794617,382.875244 599.873047,381.479309 583.936646,380.406036 
	C560.155945,378.804504 536.319092,379.096283 511.499908,378.878754 
M541.199707,494.294800 
	C545.017395,498.954987 549.401062,501.930603 555.752991,499.290527 
	C551.275574,486.281677 531.191956,474.333221 513.840698,474.260406 
	C495.397156,474.183014 475.140381,485.791168 470.417145,499.144318 
	C476.477692,500.962891 478.356049,500.560760 482.391235,496.580994 
	C499.138672,480.063568 522.955383,478.932709 541.199707,494.294800 
M527.729675,409.096527 
	C515.505005,405.515839 503.584686,407.094086 491.808411,411.158386 
	C503.692047,407.968018 515.756592,408.739960 527.729675,409.096527 
z"/>
<path fill="#000000" opacity="1.000000" stroke="none" 
	d="
M577.000122,633.591553 
	C590.500061,633.601135 603.505432,633.840210 616.497864,633.532227 
	C623.926147,633.356140 630.653015,635.022034 637.050415,638.614441 
	C642.424866,641.632446 647.932007,644.418030 653.261230,647.511658 
	C658.824646,650.741150 659.791565,654.974365 655.867920,659.923645 
	C649.445618,668.024597 642.560364,675.750671 634.817444,682.624268 
	C629.443359,687.395020 623.157104,690.122070 615.802063,690.441040 
	C596.837646,691.263489 577.888672,692.471191 558.920532,693.173218 
	C527.442566,694.338318 495.949890,694.167236 464.474457,693.102539 
	C445.170959,692.449524 425.881531,691.317200 406.596710,690.209961 
	C400.215240,689.843628 394.808167,686.776123 390.070374,682.634399 
	C382.397491,675.926636 375.532349,668.416626 369.066589,660.567383 
	C364.819061,655.411011 365.779419,650.598877 371.641846,647.257385 
	C378.007568,643.628967 384.523773,640.258850 391.033813,636.891113 
	C396.023254,634.309937 401.386414,633.549133 407.000824,633.555725 
	C463.500488,633.621948 520.000305,633.593567 577.000122,633.591553 
z"/>
<path fill="#000000" opacity="1.000000" stroke="none" 
	d="
M546.464233,739.524231 
	C524.514343,740.565369 503.020844,740.500732 481.542206,739.678772 
	C468.728943,739.188477 455.909790,739.138977 443.093536,738.421509 
	C415.165405,736.858093 387.255127,735.192078 359.444000,732.132629 
	C358.288574,732.005554 357.111084,731.847046 356.010956,731.494141 
	C352.990295,730.525146 352.526337,728.430542 355.171112,726.954163 
	C371.478882,717.851135 386.822540,706.648071 407.629333,710.229065 
	C420.503143,712.444824 433.841736,712.054932 446.981049,712.614624 
	C482.113312,714.111267 517.275452,714.195679 552.413940,713.486694 
	C575.699402,713.016846 598.964661,711.253418 622.221313,709.788635 
	C631.856628,709.181824 640.726501,711.012268 649.110291,715.732971 
	C654.914612,719.001221 660.877380,721.987610 666.693542,725.235718 
	C668.485596,726.236572 671.384827,726.958740 670.871765,729.561035 
	C670.311584,732.402283 667.260437,732.036560 665.032349,732.268311 
	C655.268127,733.283936 645.509705,734.442017 635.718933,735.099060 
	C606.150513,737.083252 576.592285,739.354614 546.464233,739.524231 
z"/>
<path fill="#000000" opacity="1.000000" stroke="none" 
	d="
M721.155518,572.054871 
	C729.393127,568.750732 737.258972,565.554504 745.156860,562.439514 
	C749.833191,560.595032 752.328491,561.727722 753.051331,566.586304 
	C754.873413,578.832581 755.334595,591.111511 752.352295,603.282227 
	C750.358826,611.417114 745.558472,617.535767 737.825195,620.601135 
	C716.263611,629.147644 694.002502,635.346619 671.110413,639.156067 
	C665.810059,640.038147 660.846863,638.354065 656.196411,635.965698 
	C649.383240,632.466858 642.682312,628.750061 635.907776,625.175110 
	C632.382690,623.314941 631.712036,621.144470 634.828735,618.253479 
	C641.176086,612.365784 647.412903,606.356812 653.838196,600.556030 
	C657.842407,596.940979 662.725037,594.754700 667.728333,592.820190 
	C685.429565,585.976013 703.109253,579.075867 721.155518,572.054871 
M732.614380,587.897522 
	C730.804321,597.657349 726.666687,605.324707 716.172363,608.325134 
	C700.675903,612.755676 685.329834,617.728699 669.419800,620.553772 
	C664.344543,621.455017 659.235901,622.168152 653.069397,623.135681 
	C660.484009,627.823547 667.165100,630.047424 674.802307,628.410767 
	C691.560913,624.819214 707.983215,620.035278 724.318542,614.877197 
	C734.998596,611.504761 741.396606,604.647705 742.310974,593.479675 
	C742.807495,587.415161 745.152649,581.187012 742.495728,575.082336 
	C734.554932,575.773987 733.274109,581.112854 732.614380,587.897522 
z"/>
<path fill="#000000" opacity="1.000000" stroke="none" 
	d="
M300.552124,625.606812 
	C298.446472,624.878174 296.706543,624.307434 294.979218,623.700684 
	C277.510010,617.564148 271.677887,609.900269 270.761749,591.358459 
	C270.367401,583.377197 270.287506,575.364868 271.927887,567.468140 
	C273.127563,561.692932 275.275574,560.463867 280.740479,562.619934 
	C307.529266,573.188843 334.296326,583.812866 361.070679,594.418274 
	C364.509552,595.780396 367.734497,597.603516 370.452454,600.058533 
	C377.001129,605.973755 383.381958,612.075317 389.806610,618.127075 
	C392.079346,620.267944 393.219482,622.596497 389.623108,624.444946 
	C380.891541,628.932861 372.551239,634.192017 363.409241,637.870544 
	C357.703003,640.166565 351.944885,639.162292 346.204285,637.965698 
	C330.874329,634.770264 315.825439,630.531616 300.552124,625.606812 
M299.195435,614.262573 
	C315.572449,619.950623 332.197571,624.759705 349.151703,628.413696 
	C356.761169,630.053650 363.535950,628.384949 369.636475,623.673706 
	C369.108490,622.546387 368.270050,622.424561 367.448669,622.346558 
	C347.570862,620.459167 328.776642,614.128296 309.774078,608.543945 
	C299.802429,605.613586 294.364960,599.259521 292.490723,589.361511 
	C292.088531,587.237488 291.629639,585.123718 291.258423,582.994446 
	C290.247070,577.192688 288.471649,575.626648 281.676239,574.945435 
	C280.629761,581.935608 281.767792,588.763062 282.912292,595.622009 
	C284.459656,604.895386 289.531219,611.046387 299.195435,614.262573 
z"/>
<path fill="#000000" opacity="1.000000" stroke="none" 
	d="
M709.350647,706.696106 
	C701.261414,701.084045 693.423218,695.742798 685.694397,690.247803 
	C680.893494,686.834412 681.162170,684.693481 686.632996,682.380432 
	C705.783569,674.283508 724.938904,666.197021 744.143616,658.229919 
	C752.043152,654.952759 756.593628,657.976990 756.176331,666.596252 
	C755.670410,677.047546 754.638672,687.481445 753.554565,697.893738 
	C752.822998,704.920166 749.085144,709.550110 741.770752,710.769165 
	C737.509399,711.479431 733.273621,712.342896 729.013489,713.061157 
	C721.516846,714.325134 715.353210,711.314148 709.350647,706.696106 
z"/>
<path fill="#000000" opacity="1.000000" stroke="none" 
	d="
M328.930542,696.953247 
	C322.930664,701.185669 317.196320,705.174255 311.499634,709.216003 
	C306.633057,712.668823 301.218781,713.865906 295.399719,712.978516 
	C290.805084,712.277771 286.255219,711.277893 281.692169,710.376709 
	C275.297394,709.113892 271.727295,704.950928 271.097687,698.734619 
	C269.992706,687.825012 268.498535,676.929443 268.661957,665.920471 
	C268.783295,657.743286 272.719666,654.862671 280.261139,657.980347 
	C299.620605,665.983826 318.906067,674.168274 338.168243,682.403992 
	C343.579742,684.717773 343.684906,686.491150 339.012299,689.852051 
	C335.772247,692.182495 332.480835,694.441528 328.930542,696.953247 
z"/>
<path fill="#000000" opacity="1.000000" stroke="none" 
	d="
M451.255280,315.560120 
	C455.935883,311.056519 456.826996,304.700653 459.660522,299.311493 
	C461.769165,295.301086 468.661804,292.861176 472.637848,295.047607 
	C474.077789,295.839386 474.160004,297.159393 474.164764,298.474976 
	C474.205200,309.635498 474.161407,320.796478 474.239746,331.956635 
	C474.266510,335.767548 471.941559,336.189178 468.964935,336.180420 
	C466.004547,336.171722 463.639587,335.797424 463.721252,331.953217 
	C463.834259,326.634399 463.749664,321.311340 463.749664,315.013184 
	C460.252991,318.924011 459.256165,323.123047 457.536255,326.867249 
	C456.273071,329.617065 455.282715,331.535675 451.577942,331.592438 
	C447.612946,331.653229 446.453491,329.584106 445.286926,326.593506 
	C443.798218,322.777252 441.992401,319.084717 439.317719,315.528870 
	C439.317719,320.959686 439.216125,326.393158 439.355621,331.820374 
	C439.440002,335.104706 437.954529,336.291443 434.846222,336.207184 
	C431.909058,336.127594 428.893463,336.328857 428.890564,332.118011 
	C428.882935,320.957550 428.913483,309.797058 428.910858,298.636597 
	C428.910217,295.987946 430.105408,294.854218 432.827209,294.623352 
	C440.797577,293.947266 440.967926,294.014465 444.361420,301.552490 
	C446.470520,306.237396 448.073883,311.169434 451.255280,315.560120 
z"/>
<path fill="#000000" opacity="1.000000" stroke="none" 
	d="
M542.080627,308.942566 
	C543.943604,311.247955 544.881836,313.856262 547.426819,315.518524 
	C549.593872,308.783508 547.838440,301.893219 548.936768,295.419464 
	C550.867615,294.312195 552.735352,294.615570 554.542053,294.488342 
	C557.448608,294.283722 558.864929,295.554901 558.854126,298.527496 
	C558.813232,309.848450 559.229492,321.174591 558.397034,332.485504 
	C558.283203,334.032898 558.191833,335.720581 556.273132,335.924194 
	C553.181763,336.252319 549.902832,337.025818 547.634460,333.766144 
	C544.305054,328.981812 540.931030,324.228363 537.552307,319.478638 
	C536.504578,318.005798 535.379883,316.587708 533.946045,314.688293 
	C531.470398,318.055573 532.684021,321.444489 532.417664,324.548767 
	C532.247498,326.532623 532.263489,328.554108 532.425110,330.540100 
	C532.740112,334.410736 531.553528,336.320831 527.185974,336.292419 
	C522.720764,336.263306 521.957397,334.087311 522.009827,330.346924 
	C522.147644,320.521423 522.001709,310.692078 522.123230,300.866180 
	C522.149841,298.713928 521.295288,295.556702 524.378906,294.991882 
	C527.646973,294.393280 531.392761,293.420044 533.906067,297.157257 
	C536.507812,301.026031 539.214783,304.824066 542.080627,308.942566 
z"/>
<path fill="#000000" opacity="1.000000" stroke="none" 
	d="
M573.104614,334.315460 
	C569.256531,336.615967 567.199341,336.721100 562.142761,335.022736 
	C563.412598,329.066925 566.368225,323.654633 568.389648,317.949036 
	C570.717285,311.379272 573.668030,305.030823 576.014465,298.466949 
	C577.226013,295.077698 579.428955,294.497131 582.548462,294.591614 
	C585.764709,294.689026 588.634521,294.436371 590.056274,298.505676 
	C593.726074,309.009491 597.848755,319.354309 601.643433,329.815979 
	C602.328796,331.705475 604.866516,334.555756 601.487976,335.656647 
	C598.438599,336.650391 594.522095,337.535950 591.977051,333.868134 
	C590.793762,332.162811 591.207092,329.011780 588.655334,328.701843 
	C584.896851,328.245270 581.014465,328.245667 577.244629,328.633453 
	C574.492554,328.916534 574.430664,332.016479 573.104614,334.315460 
M581.190186,312.193481 
	C580.684509,314.479828 578.616577,316.504913 579.930603,319.163696 
	C581.931030,319.852692 583.813477,319.964661 585.863892,318.965332 
	C586.377625,316.039124 584.998291,313.531036 583.806213,311.093567 
	C582.887695,309.215393 582.054993,310.589478 581.190186,312.193481 
z"/>
<path fill="#000000" opacity="1.000000" stroke="none" 
	d="
M508.274170,335.010315 
	C506.578094,332.739960 506.952362,329.190857 504.169250,328.654541 
	C500.117035,327.873627 495.862579,327.879089 491.779266,328.778992 
	C489.992737,329.172699 489.714569,331.237885 489.167725,332.785583 
	C488.424164,334.889893 487.090759,335.936737 484.770264,336.156128 
	C477.999634,336.796112 476.908325,335.531250 479.329742,329.189667 
	C483.186768,319.088226 487.298950,309.080597 490.960083,298.909760 
	C492.445435,294.783386 495.295654,294.687164 498.793976,294.561371 
	C502.329803,294.434204 504.211456,295.656403 505.432343,299.061584 
	C509.024597,309.080872 512.944885,318.982422 516.726807,328.933838 
	C519.367004,335.880951 518.779907,336.682892 511.368042,336.111450 
	C510.412872,336.037811 509.486511,335.590546 508.274170,335.010315 
M496.923035,311.052002 
	C496.157898,313.654022 494.275909,315.975952 494.774750,319.054688 
	C497.129761,319.863892 499.261749,320.021820 501.395599,318.732147 
	C501.319885,315.633331 500.071655,313.113312 499.061127,310.540314 
	C498.554901,309.251404 497.833069,309.089081 496.923035,311.052002 
z"/>
</svg>